HIERARCHY
ROOT Hips
{
	OFFSET -3.958830 18.904000 13.208200
	CHANNELS 6 Xposition Yposition Zposition Zrotation Yrotation Xrotation 
	JOINT LHipJoint
	{
		OFFSET 0.000000 0.000000 0.000000
		CHANNELS 3 Zrotation Yrotation Xrotation
		JOINT LeftUpLeg
		{
			OFFSET 1.800000 -1.400000 0.085000
			CHANNELS 3 Zrotation Yrotation Xrotation
			JOINT LeftLeg
			{
				OFFSET 2.215000 -6.000000 0.000000
				CHANNELS 3 Zrotation Yrotation Xrotation
				JOINT LeftFoot
				{
					OFFSET 2.500000 -6.900000 0.000000
					CHANNELS 3 Zrotation Yrotation Xrotation
					JOINT LeftToeBase
					{
						OFFSET 0.200000 -0.500000 1.950000
						CHANNELS 3 Zrotation Yrotation Xrotation
						End Site
						{
							OFFSET 0.000000 0.000000 0.000000
						}
					}
				}
			}
		}
	}
	JOINT RHipJoint
	{
		OFFSET 0.000000 0.000000 0.000000
		CHANNELS 3 Zrotation Yrotation Xrotation
		JOINT RightUpLeg
		{
			OFFSET -1.800000 -1.400000 0.085000
			CHANNELS 3 Zrotation Yrotation Xrotation
			JOINT RightLeg
			{
				OFFSET -2.215000 -6.000000 0.000000
				CHANNELS 3 Zrotation Yrotation Xrotation
				JOINT RightFoot
				{
					OFFSET -2.500000 -6.900000 0.000000
					CHANNELS 3 Zrotation Yrotation Xrotation
					JOINT RightToeBase
					{
						OFFSET -0.200000 -0.500000 1.950000
						CHANNELS 3 Zrotation Yrotation Xrotation
						End Site
						{
							OFFSET 0.000000 0.000000 0.000000
						}
					}
				}
			}
		}
	}
	JOINT LowerBack
	{
		OFFSET 0.000000 0.000000 0.000000
		CHANNELS 3 Zrotation Yrotation Xrotation
		JOINT Spine
		{
			OFFSET -0.087000 1.940000 -0.288900
			CHANNELS 3 Zrotation Yrotation Xrotation
			JOINT Spine1
			{
				OFFSET 0.000000 1.950000 0.060000
				CHANNELS 3 Zrotation Yrotation Xrotation
				JOINT Neck
				{
					OFFSET 0.000000 0.000000 0.000000
					CHANNELS 3 Zrotation Yrotation Xrotation
					JOINT Neck1
					{
						OFFSET 0.000000 1.600000 0.340000
						CHANNELS 3 Zrotation Yrotation Xrotation
						JOINT Head
						{
							OFFSET 0.000000 1.667000 -0.240000
							CHANNELS 3 Zrotation Yrotation Xrotation
							End Site
							{
								OFFSET 0.000000 0.000000 0.000000
							}
						}
					}
				}
				JOINT LeftShoulder
				{
					OFFSET 0.000000 0.000000 0.000000
					CHANNELS 3 Zrotation Yrotation Xrotation
					JOINT LeftArm
					{
						OFFSET 2.700000 1.550000 -0.730000
						CHANNELS 3 Zrotation Yrotation Xrotation
						JOINT LeftForeArm
						{
							OFFSET 5.450000 0.000000 0.000000
							CHANNELS 3 Zrotation Yrotation Xrotation
							JOINT LeftHand
							{
								OFFSET 3.450000 0.000000 0.000000
								CHANNELS 3 Zrotation Yrotation Xrotation
								JOINT LeftHandIndex1
								{
									OFFSET 0.750000 0.000000 0.000000
									CHANNELS 3 Zrotation Yrotation Xrotation
									End Site
									{
										OFFSET 0.000000 0.000000 0.000000
									}
								}
							}
						}
					}
				}
				JOINT RightShoulder
				{
					OFFSET 0.000000 0.000000 0.000000
					CHANNELS 3 Zrotation Yrotation Xrotation
					JOINT RightArm
					{
						OFFSET -2.700000 1.550000 -0.730000
						CHANNELS 3 Zrotation Yrotation Xrotation
						JOINT RightForeArm
						{
							OFFSET -5.450000 0.000000 0.000000
							CHANNELS 3 Zrotation Yrotation Xrotation
							JOINT RightHand
							{
								OFFSET -3.450000 0.000000 0.000000
								CHANNELS 3 Zrotation Yrotation Xrotation
								JOINT RightHandIndex1
								{
									OFFSET -0.750000 0.000000 0.000000
									CHANNELS 3 Zrotation Yrotation Xrotation
									End Site
									{
										OFFSET 0.000000 0.000000 0.000000
									}
								}
							}
						}
					}
				}
			}
		}
	}
}
MOTION
Frames: 13
Frame Time: 0.016667
-1.063310 16.700610 -4.302180 3.861827 -5.184461 -8.207567 -14.388837 10.991610 2.197724 0.003495 -0.435730 -2.763443 -6.033218 5.865783 14.659538 -0.037060 3.903813 3.335632 0.178190 0.226360 -0.252060 19.039190 -12.380067 3.737269 -24.458276 1.987678 2.462077 -1.003180 -3.707454 -3.788507 -0.539978 -5.789640 2.460470 0.247070 0.265710 0.038860 -5.811611 5.191982 -7.441407 21.340407 7.317717 10.150067 -9.261472 11.300583 25.293504 13.320956 -8.687245 -14.172552 -10.202307 -20.359994 25.544770 -0.548180 -26.156410 -13.409580 -17.245403 -13.602666 9.608432 -50.051273 -0.943870 -4.863584 -82.932904 -74.041142 53.164102 -3.694978 3.471295 -0.083860 0.040970 -0.168590 0.235050 -4.490897 30.318925 8.210892 -44.760613 28.592064 -26.282630 -100.556526 3.181661 -7.034565 3.126755 -1.743169 -0.012120 0.269320 0.056840 0.229580 
-1.048770 16.697420 -4.295370 3.918420 -4.850653 -7.868809 -14.370773 10.937937 2.200574 -0.178195 -0.557202 -3.040300 -6.099689 5.830734 14.619610 -0.026083 3.865356 3.349582 0.157070 0.196350 -0.257350 19.058924 -12.389681 3.767092 -24.563816 2.107378 2.363307 -1.111349 -3.663415 -4.007507 -0.536344 -5.802850 2.456123 0.222410 0.259060 0.042900 -5.864947 5.314525 -7.485024 21.871260 7.690441 9.964237 -9.675485 11.835747 24.571919 13.382270 -8.235642 -14.240697 -9.392924 -21.602772 25.367180 -0.982770 -26.922590 -12.627890 -17.321946 -13.677209 9.629166 -49.535493 -0.891898 -4.600444 -82.800187 -73.462977 52.977225 -3.687722 3.494153 -0.093340 0.042330 -0.172630 0.226400 -4.784462 30.184250 8.301559 -44.329193 26.287805 -25.019402 -100.456827 3.512424 -7.078832 3.174815 -1.755184 -0.005550 0.249930 0.059760 0.230700 
-1.024680 16.689330 -4.282220 4.227617 -4.216584 -7.386880 -14.332484 10.841336 2.221506 -0.755291 -0.749097 -3.378101 -6.083535 5.736451 14.571806 -0.023815 3.794623 3.369119 0.133240 0.158580 -0.257790 19.100546 -12.403690 3.808620 -24.980598 2.350155 2.294142 -1.349373 -3.621136 -4.246454 -0.541951 -5.832291 2.440058 0.189920 0.237390 0.047140 -5.979016 5.508477 -7.547879 22.592164 8.236882 9.574048 -10.736644 12.755960 23.404550 13.317037 -7.455711 -14.164766 -8.258569 -23.387175 25.572970 -1.606950 -28.192020 -11.885390 -17.715980 -13.642127 9.642469 -48.122585 -0.743964 -3.916415 -85.658018 -73.159740 55.704525 -3.727729 3.417223 -0.090670 0.033440 -0.168440 0.209860 -4.721718 29.607919 8.316139 -43.184882 23.586771 -23.021817 -100.869418 5.756975 -8.838352 3.209652 -1.760497 0.002630 0.225450 0.065350 0.226310 
-0.996600 16.675120 -4.270670 4.321688 -3.517698 -7.257100 -14.283962 10.764210 2.236494 -1.013557 -0.846229 -3.309369 -6.242561 5.708541 14.376034 0.029319 3.749264 3.387251 0.090180 0.108830 -0.291030 19.150880 -12.430928 3.839128 -25.392139 2.454010 2.521951 -1.309256 -3.666252 -4.261000 -0.547918 -5.889274 2.423227 0.136520 0.232120 0.049140 -6.117873 5.662188 -7.617898 23.502485 8.280714 9.293001 -11.899447 13.189028 22.760266 13.180019 -6.587529 -14.236942 -7.195670 -24.364538 26.353013 -0.934720 -29.450030 -10.792970 -17.794565 -13.942703 10.022618 -47.413141 -0.389474 -3.712494 -94.291190 -73.454550 63.818177 -3.823256 3.176256 -0.104000 0.023190 -0.169570 0.203670 -4.669077 29.112360 8.412017 -42.717681 21.580368 -21.747504 -100.192503 7.279622 -9.781569 3.264086 -1.753511 0.022000 0.192150 0.071020 0.244300 
-0.968250 16.659930 -4.262280 4.583506 -2.527225 -7.209687 -14.245662 10.676451 2.264234 -1.340578 -0.899342 -3.087686 -6.596896 5.690940 13.867773 0.068515 3.719952 3.402813 0.057750 0.069830 -0.309840 19.195345 -12.452246 3.849097 -25.875214 2.553204 2.901605 -1.409672 -3.731912 -4.175420 -0.557979 -5.962158 2.400930 0.097670 0.227080 0.052110 -6.236025 5.804764 -7.682470 24.084967 8.180346 8.806092 -12.883524 13.311742 22.429377 13.163136 -5.920721 -14.339208 -6.465704 -25.075478 27.373496 -1.165390 -30.336570 -9.587280 -18.070871 -14.121424 10.225600 -46.722249 0.008763 -3.805277 -93.866013 -73.931182 64.054875 -3.818560 3.156442 -0.114570 0.019820 -0.169650 0.198250 -4.496895 28.784632 8.711537 -42.484474 20.633247 -20.990516 -99.217872 8.539694 -10.500613 3.300761 -1.740101 0.034130 0.169040 0.074340 0.254700 
-0.943570 16.643180 -4.250550 4.904846 -1.323668 -7.164008 -14.228021 10.627794 2.300495 -1.655315 -0.889325 -2.766676 -7.007080 5.694617 13.283303 0.105755 3.709955 3.414202 0.035310 0.042860 -0.322870 19.219925 -12.454193 3.823194 -26.298599 2.577317 3.337096 -1.656955 -3.800163 -3.924135 -0.567085 -6.015461 2.389424 0.069530 0.223620 0.049210 -6.298999 5.825609 -7.723848 24.281909 7.940544 8.235770 -13.597289 13.200515 22.215252 13.058133 -5.513936 -14.411240 -6.210803 -25.327041 28.373190 -1.222560 -30.971020 -8.659180 -18.057553 -14.265748 10.430854 -46.551264 0.216305 -3.851430 -94.919628 -74.287208 65.498234 -3.821856 3.092011 -0.119080 0.014560 -0.167610 0.199110 -4.391732 28.505588 8.852392 -41.804810 20.063906 -20.292710 -99.641011 10.196138 -11.978499 3.312758 -1.734166 0.040110 0.156130 0.070780 0.263690 
-0.919700 16.632790 -4.232850 5.099783 0.172064 -7.375841 -14.218507 10.585392 2.324311 -1.706867 -0.731846 -2.010101 -7.545633 5.744370 12.497730 0.135059 3.748024 3.407229 0.030650 0.043660 -0.333260 19.242447 -12.473735 3.760505 -26.613904 2.453473 4.100412 -1.836473 -3.931717 -3.391275 -0.581050 -6.094231 2.367453 0.068020 0.225860 0.042090 -6.351402 5.842770 -7.710159 24.240822 7.444067 7.381399 -13.827790 12.674962 22.539249 12.959734 -5.156495 -14.294784 -5.944945 -25.317506 29.166503 -1.033050 -31.432850 -8.320940 -18.253253 -14.335863 10.534287 -46.390915 0.163224 -3.833413 -97.132180 -74.720112 68.235292 -3.842777 2.978609 -0.128130 0.012150 -0.170170 0.202830 -3.908787 27.998987 8.921523 -41.248005 20.630983 -19.838113 -100.506984 12.759373 -14.500315 3.273949 -1.720066 0.042920 0.157470 0.068280 0.273210 
-0.899680 16.622810 -4.216090 5.245414 1.441439 -7.383584 -14.219101 10.547880 2.333726 -1.781459 -0.646501 -1.665719 -7.912198 5.802678 12.210815 0.134975 3.784684 3.386314 0.054190 0.067890 -0.313890 19.252107 -12.499599 3.704195 -26.918364 2.357077 4.545499 -1.866477 -4.045413 -2.843659 -0.595107 -6.148567 2.335977 0.085200 0.209440 0.048430 -6.373367 5.893348 -7.679699 24.046790 7.135975 6.551292 -13.876129 12.310700 22.730394 12.976387 -4.552045 -14.138464 -5.034699 -25.984458 29.233547 -1.240530 -31.941190 -8.606640 -18.400162 -14.320580 10.551050 -46.194512 0.018917 -3.541058 -98.651469 -74.693639 70.061303 -3.843511 2.946374 -0.129630 0.005910 -0.163570 0.198770 -3.756380 27.351475 8.868276 -40.644167 21.391396 -19.376635 -101.882223 15.712356 -17.695568 3.218541 -1.716023 0.053760 0.151990 0.063330 0.269750 
-0.887520 16.612560 -4.210070 5.392561 1.898560 -7.755419 -14.214952 10.504473 2.330330 -1.726149 -0.530996 -1.098429 -8.306084 5.934433 12.129121 0.156776 3.864205 3.363701 0.048170 0.063350 -0.321990 19.266062 -12.525798 3.673505 -27.244719 2.235048 4.889629 -1.799540 -4.163795 -2.484617 -0.600167 -6.212419 2.313111 0.083580 0.215350 0.049240 -6.399836 5.963236 -7.681314 23.909720 6.847886 6.360521 -13.835760 12.181166 23.452613 13.171714 -4.425615 -14.328981 -4.775233 -26.272921 29.352271 -1.406510 -32.318610 -8.258500 -18.201685 -14.745771 10.680166 -46.684624 -0.365499 -3.906646 -104.438838 -74.540900 76.102699 -3.832592 2.831584 -0.136290 0.010400 -0.167440 0.200210 -4.054001 27.700907 9.220892 -41.159837 21.512919 -19.532765 -102.717116 16.215804 -18.365269 3.233893 -1.713394 0.053890 0.152990 0.066210 0.274960 
-0.881020 16.611140 -4.217560 5.588658 1.886341 -8.546483 -14.203808 10.418726 2.311878 -1.626996 -0.331591 -0.118901 -8.720739 6.100119 12.034248 0.169892 3.993460 3.331971 0.059990 0.091380 -0.337550 19.297340 -12.552377 3.654874 -27.645579 2.092631 5.307476 -1.787578 -4.262258 -2.314177 -0.609695 -6.313899 2.282081 0.116180 0.249160 0.044750 -6.457138 6.108618 -7.655777 23.739164 6.088948 6.263885 -13.627165 11.721468 25.393439 13.602896 -4.706593 -14.484699 -4.881875 -25.651862 29.045817 -1.067680 -32.084890 -8.503910 -18.130261 -15.143479 10.713112 -47.398462 -1.095319 -4.827448 -116.042031 -74.478671 89.317108 -3.712018 2.812952 -0.156240 0.030820 -0.185640 0.216170 -4.246662 28.230308 9.769988 -42.576033 23.727848 -20.845855 -103.744366 16.919583 -19.674854 3.211117 -1.709538 0.044320 0.180190 0.069510 0.287340 
-0.873670 16.609560 -4.216820 5.837554 1.641677 -8.823452 -14.190925 10.370735 2.322030 -1.867784 -0.285836 0.304420 -8.774656 6.130617 12.044833 0.175587 4.033635 3.326259 0.066130 0.104810 -0.342620 19.316153 -12.588328 3.628400 -28.017178 2.009486 5.223062 -1.867955 -4.307354 -1.962287 -0.602830 -6.336003 2.273974 0.131870 0.266790 0.039150 -6.497222 6.207922 -7.665405 23.828565 5.486356 6.222571 -14.264266 11.627746 26.383804 14.079793 -4.933254 -14.729204 -4.949836 -25.028908 28.741775 -0.677210 -31.720090 -8.690000 -17.576528 -15.137604 10.701214 -47.910485 -1.266728 -5.267953 -122.651896 -74.553109 97.173423 -3.614074 2.910011 -0.166680 0.040380 -0.196240 0.224000 -5.346611 28.568260 10.181964 -43.185660 24.420404 -21.146657 -106.788432 18.506815 -22.604306 3.204458 -1.721511 0.038060 0.194730 0.069030 0.292140 
-0.869070 16.606860 -4.213740 6.032250 1.527041 -9.038638 -14.182785 10.325145 2.324689 -2.056662 -0.229256 0.638498 -8.788574 6.134986 11.985006 0.171122 4.058214 3.322686 0.071350 0.122190 -0.354300 19.331774 -12.603615 3.618610 -28.383805 1.987495 5.356036 -1.826826 -4.367319 -1.774674 -0.605450 -6.384198 2.258416 0.150820 0.283590 0.033290 -6.528416 6.284200 -7.661985 23.842056 5.147387 6.097781 -14.562847 11.532835 27.005749 14.351294 -5.198596 -14.765684 -5.171723 -24.681171 28.501731 -0.409900 -31.544900 -9.127750 -17.266322 -14.873167 10.467072 -47.871069 -1.421574 -5.407745 -123.677960 -74.722721 98.584116 -3.601786 2.915932 -0.172870 0.048290 -0.203630 0.232570 -5.903768 28.616818 10.481119 -43.824989 25.090942 -21.464547 -108.107149 19.277191 -24.045941 3.188035 -1.719288 0.030480 0.213740 0.071970 0.298650 
-0.858340 16.602940 -4.203890 6.151890 1.887070 -9.000728 -14.172192 10.276992 2.318626 -2.337104 -0.247145 0.693239 -8.611787 6.088785 12.090911 0.159176 4.041489 3.322042 0.078390 0.127180 -0.350000 19.350427 -12.608339 3.631419 -28.650891 2.053213 5.614934 -1.720691 -4.417853 -1.786908 -0.620075 -6.432522 2.234535 0.154300 0.271930 0.033620 -6.570510 6.363141 -7.680656 24.186460 5.265890 5.881302 -14.744873 11.654139 26.955811 14.438500 -5.398764 -14.751483 -5.403401 -25.286916 28.353607 -0.290830 -32.111780 -9.859280 -16.902585 -14.621857 10.212726 -47.653251 -1.591016 -5.142227 -119.568081 -74.827984 93.935794 -3.652391 2.831849 -0.163870 0.036570 -0.198620 0.227310 -6.383820 28.700559 10.563877 -43.731264 24.788190 -21.306950 -108.704086 19.456562 -24.479773 3.194863 -1.723738 0.033430 0.214360 0.075690 0.295750 
